<mxfile host="app.diagrams.net" modified="2022-05-05T09:20:49.262Z" agent="5.0 (Windows NT 10.0; Win64; x64) AppleWebKit/537.36 (KHTML, like Gecko) Chrome/101.0.4951.54 Safari/537.36" etag="UzP-BIhmawFEVnHnwquv" version="18.0.0" type="github">
  <diagram id="HPaQQKMFe-mqzp9ZeePR" name="Page-1">
    <mxGraphModel dx="1038" dy="539" grid="1" gridSize="10" guides="1" tooltips="1" connect="1" arrows="1" fold="1" page="1" pageScale="1" pageWidth="827" pageHeight="1169" math="0" shadow="0">
      <root>
        <mxCell id="0" />
        <mxCell id="1" parent="0" />
        <mxCell id="nEwhRJ8Z3TvL11_3tnGb-1" value="Main: Programma foto" style="rounded=0;whiteSpace=wrap;html=1;" vertex="1" parent="1">
          <mxGeometry x="320" y="40" width="154" height="60" as="geometry" />
        </mxCell>
        <mxCell id="nEwhRJ8Z3TvL11_3tnGb-2" value="" style="shape=flexArrow;endArrow=classic;html=1;rounded=0;exitX=0.5;exitY=1;exitDx=0;exitDy=0;" edge="1" parent="1" source="nEwhRJ8Z3TvL11_3tnGb-1">
          <mxGeometry width="50" height="50" relative="1" as="geometry">
            <mxPoint x="390" y="300" as="sourcePoint" />
            <mxPoint x="397" y="170" as="targetPoint" />
          </mxGeometry>
        </mxCell>
        <mxCell id="nEwhRJ8Z3TvL11_3tnGb-9" value="" style="rounded=0;whiteSpace=wrap;html=1;" vertex="1" parent="1">
          <mxGeometry x="323" y="170" width="150" height="60" as="geometry" />
        </mxCell>
      </root>
    </mxGraphModel>
  </diagram>
</mxfile>
